<?xml version="1.0" encoding="UTF-8"?><svg id="Layer_2" xmlns="http://www.w3.org/2000/svg" viewBox="0 0 801.53 202.08"><defs><style>.cls-1{fill:#231f20;}</style></defs><g id="Layer_1-2"><g><g><path d="m243.75,132.97h39.85c.59,0,1.15-.23,1.57-.65s.65-.98.65-1.57v-32.02c0-2.86-1.39-5.54-3.72-7.2l-11.78-8.37,3.94-71.87c.19-2.93-.84-5.8-2.85-7.94-2-2.14-4.8-3.35-7.74-3.35s-5.73,1.22-7.74,3.35c-2,2.14-3.03,5.01-2.85,7.94l3.94,71.87-11.73,8.37c-2.35,1.65-3.75,4.33-3.76,7.2v32.02c0,.59.23,1.15.65,1.57s.98.65,1.57.65h0Zm2.21-34.23c0-1.42.7-2.76,1.86-3.59l12.71-9.1c.58-.42.92-1.08.93-1.79l-3.96-73.06c-.12-1.75.51-3.47,1.75-4.72,2.46-2.42,6.4-2.42,8.86,0,1.18,1.22,1.8,2.88,1.7,4.58l-3.92,73.2c-.03.75.32,1.47.93,1.9l12.71,9.1c1.13.8,1.82,2.09,1.86,3.48v29.8h-35.42v-29.8Z"/><path d="m261.46,101.98h4.43v22.14h-4.43v-22.14Z"/><path d="m250.39,101.98h4.43v22.14h-4.43v-22.14Z"/><path d="m272.53,101.98h4.43v22.14h-4.43v-22.14Z"/><path d="m261.46,8.99h4.43v4.43h-4.43v-4.43Z"/></g><g><path d="m417.19,84.8l3.96-73.48c.19-2.93-.84-5.81-2.85-7.95-2.01-2.14-4.82-3.36-7.75-3.36s-5.75,1.22-7.75,3.36c-2.01,2.14-3.04,5.02-2.85,7.95l3.96,73.48c-6.1,1.9-11.24,6.07-14.37,11.65-4.1,7.1-4.36,15.79-.68,23.11,3.68,7.33,10.8,12.31,18.95,13.26.93,0,1.86.15,2.77.15,6.45,0,12.64-2.57,17.21-7.14,4.56-4.57,7.12-10.76,7.12-17.21-.07-5.33-1.83-10.5-5-14.77-3.18-4.28-7.63-7.44-12.71-9.05h0Zm6.64,38.7c-7.3,6.56-18.29,6.83-25.9.63-7.62-6.19-9.58-17.02-4.63-25.49,2.81-5.06,7.64-8.7,13.28-9.99,1.02-.22,1.75-1.12,1.75-2.17l-3.96-75.28c0-3.41,2.77-6.18,6.18-6.18s6.18,2.77,6.18,6.18l-3.96,75.28c-.02,1.06.71,1.99,1.75,2.21,4.5,1.07,8.52,3.61,11.41,7.22,2.89,3.61,4.49,8.08,4.56,12.71,0,5.68-2.41,11.09-6.64,14.88h0Z"/><path d="m395.05,108.62c0,8.56,6.94,15.5,15.5,15.5v-4.43c-6.12,0-11.07-4.95-11.07-11.07s4.95-11.07,11.07-11.07v-4.43c-8.56,0-15.5,6.94-15.5,15.5h0Z"/><path d="m408.34,8.99h4.43v4.43h-4.43v-4.43Z"/></g><g><path d="m559.14,81.19l3.94-69.87c.19-2.93-.84-5.8-2.85-7.94-2-2.14-4.8-3.35-7.74-3.35s-5.73,1.22-7.74,3.35c-2,2.14-3.03,5.01-2.85,7.94l3.94,69.87-6.22,6.2c-1.67,1.66-2.61,3.91-2.63,6.27v37.11c0,.59.23,1.15.65,1.57s.98.65,1.57.65h4.43c1.06.02,1.99-.71,2.21-1.75l6.22-29.25h.84l6.22,29.25c.22,1.04,1.15,1.77,2.21,1.75h4.43c.59,0,1.15-.23,1.57-.65s.65-.98.65-1.57v-37.11c-.01-2.35-.94-4.59-2.59-6.27l-6.27-6.2Zm4.43,47.36h-.42l-6.22-29.25c-.22-1.04-1.15-1.77-2.21-1.75h-4.43c-1.06-.02-1.99.71-2.21,1.75l-6.22,29.25h-.42v-34.89c0-1.17.48-2.3,1.31-3.12l6.91-6.91c.45-.45.68-1.07.64-1.7l-3.94-70.85c-.08-1.7.54-3.36,1.73-4.58,2.46-2.42,6.4-2.42,8.86,0,1.17,1.23,1.78,2.89,1.68,4.58l-3.9,70.85c-.04.64.19,1.26.64,1.7l6.91,6.91c.83.82,1.3,1.95,1.31,3.12v34.89Z"/><path d="m550.29,8.99h4.43v4.43h-4.43v-4.43Z"/></g></g><g><g><path class="cls-1" d="m59.34,196.51c-.95,1.99-2.06,3.41-3.32,4.27s-2.75,1.29-4.46,1.29c-2.07,0-3.6-.42-4.59-1.27-.99-.84-1.59-1.79-1.82-2.83-.23-1.04-.34-2.22-.34-3.52v-12.42h-3.98v-2.43c1.67,0,3.12-.32,4.35-.95,1.23-.63,2.2-1.49,2.91-2.56s1.16-2.22,1.36-3.45h2.16v6.96h7.46v2.43h-7.46v12.58c0,1.53.1,2.63.3,3.31.2.68.7,1.02,1.49,1.02.84,0,1.54-.33,2.08-.99.54-.66,1.07-1.48,1.58-2.47l2.27,1.03Z"/><path class="cls-1" d="m134.68,201.21h-13.55v-2.43c1.21,0,2.05-.21,2.5-.65.46-.43.69-1.06.69-1.88v-8.86c0-.88-.06-1.67-.17-2.37-.11-.7-.42-1.34-.91-1.91-.49-.57-1.25-.86-2.27-.86-.83,0-1.67.22-2.52.67-.85.45-1.51,1.03-1.96,1.75-.49.81-.8,1.59-.94,2.33-.13.75-.2,1.65-.2,2.7v4.54c0,1.23.05,2.13.14,2.7.1.57.37,1.02.82,1.34.45.33,1.19.49,2.23.49v2.43h-13.82v-2.43c1.18,0,2.04-.12,2.6-.37.55-.25.9-.61,1.03-1.09.13-.48.2-1.28.2-2.39v-22.12c0-1.32-.21-2.2-.63-2.65-.42-.45-1.49-.68-3.19-.7v-2.37l10.63-2.27v17.8c1.04-1.09,2.11-2.01,3.23-2.75,1.12-.75,2.67-1.12,4.65-1.12.91,0,1.83.13,2.74.4.91.26,1.74.65,2.47,1.16.73.51,1.26,1.09,1.59,1.74.72,1.28,1.08,2.95,1.08,5.01v7.88c0,1.48.19,2.49.57,3.03.38.54,1.38.82,2.99.82v2.43Z"/><path class="cls-1" d="m187.18,189.6h-16.22c.02.33.07,1.05.15,2.14s.33,2.21.74,3.35,1.12,2.11,2.14,2.89c1.01.78,2.37,1.17,4.07,1.17.93,0,2.06-.24,3.38-.71s2.46-1.39,3.43-2.74l2.06,1.4c-2.07,3.32-5.37,4.98-9.89,4.98-2.02,0-3.86-.29-5.52-.87s-3.07-1.39-4.23-2.43-2.05-2.26-2.66-3.67c-.62-1.41-.92-2.92-.92-4.54,0-2.13.51-4.1,1.54-5.91s2.5-3.25,4.42-4.32,4.1-1.61,6.57-1.61,4.44.52,6.1,1.56,2.89,2.38,3.68,4.03,1.19,3.41,1.19,5.27Zm-6.54-2.43c0-4.01-1.58-6.01-4.75-6.01-1.53,0-2.7.55-3.52,1.66s-1.27,2.56-1.36,4.35h9.62Z"/><path class="cls-1" d="m342.03,201.21h-14.63v-2.43c1.21,0,2.07-.14,2.58-.41.51-.27.82-.65.94-1.13.11-.48.17-1.25.17-2.31v-7.99c0-1.16-.26-2.23-.78-3.22s-1.7-1.48-3.55-1.48c-1.32,0-2.46.33-3.43.99-.97.66-1.71,1.56-2.23,2.71-.52,1.15-.78,2.44-.78,3.86v5.12c0,1.09.07,1.88.2,2.36.13.48.47.85,1.02,1.11.54.26,1.43.38,2.66.38v2.43h-14.34v-2.43c1.18,0,2.03-.13,2.54-.4.52-.26.83-.64.95-1.13.11-.49.17-1.27.17-2.32v-8.31c0-1.85-.48-3.04-1.45-3.57-.97-.54-1.87-.8-2.71-.8-1.12,0-2.21.27-3.27.82s-1.86,1.25-2.4,2.11c-.39.63-.64,1.26-.75,1.87s-.17,1.39-.17,2.32v5.56c0,1.09.07,1.88.2,2.36.13.48.48.85,1.04,1.11.56.26,1.45.38,2.66.38v2.43h-14.42v-2.43c1.2,0,2.05-.13,2.57-.38.52-.25.84-.63.96-1.12s.19-1.27.19-2.35v-9.02c0-1.65-1.06-2.48-3.19-2.48h-1.34v-2.43l11.13-2.27c.14.93.21,2.27.21,4.01,1.25-1.25,2.57-2.23,3.97-2.94,1.4-.71,3.01-1.07,4.84-1.07,1.7,0,3.34.33,4.9,1,1.56.67,2.74,1.9,3.53,3.69,1.6-1.9,3.14-3.16,4.61-3.77s3-.92,4.56-.92c2.78,0,4.92.66,6.43,1.98,1.51,1.32,2.27,3.34,2.27,6.06v8.15c0,.98.05,1.73.14,2.23.1.5.38.9.84,1.19.46.29,1.21.44,2.23.44h.92v2.43Z"/><path class="cls-1" d="m412.26,189.6h-16.22c.02.33.07,1.05.14,2.14.08,1.09.33,2.21.74,3.35.41,1.14,1.12,2.11,2.14,2.89,1.01.78,2.37,1.17,4.07,1.17.93,0,2.06-.24,3.38-.71s2.46-1.39,3.43-2.74l2.06,1.4c-2.07,3.32-5.37,4.98-9.89,4.98-2.02,0-3.86-.29-5.52-.87-1.66-.58-3.07-1.39-4.23-2.43s-2.05-2.26-2.66-3.67-.92-2.92-.92-4.54c0-2.13.51-4.1,1.54-5.91,1.03-1.81,2.5-3.25,4.42-4.32s4.11-1.61,6.57-1.61,4.44.52,6.1,1.56c1.66,1.04,2.89,2.38,3.68,4.03s1.19,3.41,1.19,5.27Zm-6.54-2.43c0-4.01-1.58-6.01-4.75-6.01-1.53,0-2.7.55-3.52,1.66-.82,1.11-1.27,2.56-1.36,4.35h9.62Z"/><path class="cls-1" d="m487.68,195.64c0,1.34-.27,2.47-.82,3.42s-1.28,1.63-2.2,2.08c-.92.45-1.96.67-3.12.67-1.48,0-2.71-.35-3.69-1.04-.98-.69-1.57-1.52-1.77-2.49-2.94,2.36-5.89,3.53-8.86,3.53-1.9,0-3.46-.46-4.67-1.38-1.21-.92-1.82-2.14-1.82-3.65,0-1.25.32-2.38.97-3.39.65-1.01,1.6-1.91,2.86-2.7,1.26-.79,2.76-1.49,4.5-2.1,1.74-.61,3.91-1.24,6.51-1.91v-1.5c0-1.25-.29-2.23-.88-2.94-.59-.71-1.67-1.07-3.26-1.07-1.35,0-2.33.28-2.93.84s-.99,1.42-1.19,2.56c-.14.81-.4,1.47-.78,1.99-.38.52-1.17.78-2.36.78-.74,0-1.39-.21-1.95-.63s-.84-1.05-.84-1.87c0-1.63.89-3.06,2.66-4.27s4.5-1.82,8.17-1.82c3.87,0,6.53.65,7.98,1.95,1.45,1.3,2.17,3.04,2.17,5.22v8.33c0,1.05.03,1.83.08,2.32s.2.87.44,1.12c.24.25.61.38,1.12.38.46,0,.86-.24,1.2-.71.34-.47.51-1.05.51-1.71h1.95Zm-12.1.21v-6.54c-3.34,1.05-5.46,2.09-6.37,3.1-.91,1.01-1.36,2-1.36,2.97,0,.81.25,1.46.74,1.95s1.19.74,2.08.74c.97,0,1.82-.2,2.56-.61s1.52-.94,2.35-1.61Z"/><path class="cls-1" d="m547.83,201.21h-15.16v-2.43h1.13c1.02,0,1.76-.14,2.23-.42.46-.28.75-.68.86-1.19s.16-1.26.16-2.24v-22.46c0-1.27-.29-2.07-.88-2.43-.59-.35-1.75-.53-3.49-.53v-2.43l11.18-2.27v30.11c0,.98.05,1.73.15,2.23.1.5.38.9.84,1.19.46.29,1.21.44,2.23.44h.77v2.43Z"/><path class="cls-1" d="m690.02,183.65c0,2.58-.44,4.92-1.32,7-.88,2.08-2.01,3.82-3.4,5.21s-2.87,2.43-4.46,3.14c-3.34,1.48-7.43,2.21-12.26,2.21h-16.32v-2.43c1.51,0,2.65-.14,3.43-.44.77-.29,1.28-.72,1.52-1.3.24-.58.36-1.41.36-2.48v-22.57c0-1.55-.32-2.64-.95-3.27s-2.08-.95-4.35-.95v-2.48l7.67-.16c.26,0,1.34-.02,3.22-.05s2.97-.05,3.27-.05c2.94,0,5.43.16,7.47.47,2.05.32,3.93.83,5.63,1.53,1.56.63,3.01,1.52,4.32,2.65,1.32,1.13,2.43,2.43,3.33,3.88.91,1.45,1.61,3.03,2.1,4.73s.74,3.49.74,5.35Zm-8.54-.16c0-3.71-.71-6.82-2.12-9.32-1.42-2.51-3.34-4.24-5.76-5.21-1.05-.42-2.18-.69-3.36-.8-1.19-.11-2.89-.17-5.1-.17v25.13c0,1.44.07,2.49.21,3.15.14.66.55,1.16,1.24,1.5.69.34,1.75.51,3.19.51,4.27,0,7.29-1.49,9.06-4.48,1.77-2.99,2.65-6.42,2.65-10.31Z"/><path class="cls-1" d="m763.89,191.77c0,2-.51,3.64-1.53,4.92s-2.31,2.24-3.88,2.9c-1.56.66-3.09,1.09-4.59,1.3s-2.94.32-4.32.32h-17.93v-2.43c1.53,0,2.66-.16,3.39-.47.73-.32,1.21-.76,1.42-1.34.22-.58.33-1.38.33-2.4v-22.57c0-1.58-.32-2.68-.97-3.3s-2.04-.92-4.17-.92v-2.48c2.55-.05,4.97-.11,7.28-.16s4.2-.09,5.68-.12c1.48-.03,2.53-.04,3.12-.04h.97c1.83,0,3.74.19,5.73.57,2,.38,3.81,1.24,5.46,2.57,1.64,1.34,2.46,3.26,2.46,5.77,0,1.88-.67,3.5-2,4.85s-3.52,2.47-6.56,3.35c2.07.37,3.88.99,5.42,1.86,1.54.87,2.7,1.97,3.49,3.31s1.19,2.84,1.19,4.51Zm-9.07-17.67c0-1.23-.29-2.31-.88-3.23-.59-.92-1.46-1.64-2.61-2.16-1.15-.52-2.56-.78-4.23-.78h-2.77v12.81h2.16c2.83,0,4.93-.6,6.29-1.79,1.36-1.2,2.04-2.81,2.04-4.85Zm.98,17.22c0-2.43-.63-4.31-1.89-5.66-1.26-1.35-3.03-2.02-5.31-2.02h-4.27v9.31c0,1.3.08,2.32.24,3.05s.55,1.29,1.19,1.69c.63.39,1.63.59,3.01.59,1.83,0,3.46-.55,4.89-1.66,1.43-1.11,2.15-2.87,2.15-5.3Z"/></g><g><path d="m0,182.19h6.4v6.29H0v-6.29Z"/><path d="m795.14,182.19h6.4v6.29h-6.4v-6.29Z"/></g></g></g></svg>