<?xml version="1.0" encoding="UTF-8"?><svg id="Layer_2" xmlns="http://www.w3.org/2000/svg" viewBox="0 0 220.57 115.29"><defs><style>.cls-1{fill:#231f20;}.cls-2{fill:none;stroke:#231f20;stroke-miterlimit:10;}</style></defs><g id="Layer_1-2"><g><path d="m36.37,89.85h10.02c.15,0,.29-.06.39-.16s.16-.25.16-.39v-8.05c0-.72-.35-1.39-.94-1.81l-2.96-2.1.99-18.07c.05-.74-.21-1.46-.72-2-.5-.54-1.21-.84-1.95-.84s-1.44.31-1.95.84c-.5.54-.76,1.26-.72,2l.99,18.07-2.95,2.1c-.59.41-.94,1.09-.95,1.81v8.05c0,.15.06.29.16.39s.25.16.39.16h0Zm.56-8.61c0-.36.18-.69.47-.9l3.2-2.29c.15-.1.23-.27.23-.45l-1-18.37c-.03-.44.13-.87.44-1.19.62-.61,1.61-.61,2.23,0,.3.31.45.73.43,1.15l-.99,18.4c0,.19.08.37.23.48l3.2,2.29c.28.2.46.53.47.87v7.49h-8.91v-7.49Z"/><path d="m40.82,82.06h1.11v5.57h-1.11v-5.57Z"/><path d="m38.04,82.06h1.11v5.57h-1.11v-5.57Z"/><path d="m43.61,82.06h1.11v5.57h-1.11v-5.57Z"/><path d="m40.82,58.67h1.11v1.11h-1.11v-1.11Z"/></g><g><path d="m97.27,35.3l13.91-14.08c.56-.56.87-1.32.85-2.11-.02-.79-.37-1.54-.96-2.06s-1.37-.78-2.16-.71c-.79.07-1.51.47-1.99,1.09l-12.32,15.5c-1.57-.71-3.35-.78-4.97-.22-2.09.7-3.69,2.4-4.26,4.53-.57,2.13-.02,4.41,1.45,6.05.19.17.35.36.53.53,1.3,1.15,3,1.74,4.74,1.63,1.73-.1,3.35-.89,4.51-2.19.94-1.09,1.51-2.44,1.63-3.87.12-1.43-.21-2.86-.94-4.09h0Zm-5.57,8.97c-2.64.02-4.9-1.89-5.33-4.5-.43-2.61,1.11-5.13,3.62-5.96,1.47-.52,3.09-.39,4.46.36.25.14.55.09.74-.12l12.64-15.86c.61-.69,1.66-.75,2.35-.14s.75,1.66.14,2.35l-14.24,14.44c-.19.21-.21.53-.04.76.72,1.02,1.07,2.25,1.01,3.49-.06,1.24-.54,2.43-1.35,3.37-1.01,1.14-2.46,1.8-3.99,1.81h0Z"/><path d="m88.56,36.15c-1.53,1.72-1.37,4.36.35,5.89l.79-.89c-1.23-1.09-1.34-2.97-.25-4.2s2.97-1.34,4.2-.25l.79-.89c-1.72-1.53-4.36-1.37-5.89.35h0Z"/><path d="m109.02,18.47l.89.79-.79.89-.89-.79.79-.89Z"/></g><g><path d="m181.46,77.97l.97-16.03c.05-.67-.21-1.33-.7-1.82-.49-.49-1.18-.77-1.9-.77s-1.41.28-1.9.77c-.49.49-.75,1.15-.7,1.82l.97,16.03-1.53,1.42c-.41.38-.64.9-.65,1.44v8.51c0,.13.06.26.16.36s.24.15.39.15h1.09c.26,0,.49-.16.54-.4l1.53-6.71h.21l1.53,6.71c.05.24.28.41.54.4h1.09c.14,0,.28-.05.39-.15s.16-.22.16-.36v-8.51c0-.54-.23-1.05-.64-1.44l-1.54-1.42Zm1.09,10.86h-.1l-1.53-6.71c-.05-.24-.28-.41-.54-.4h-1.09c-.26,0-.49.16-.54.4l-1.53,6.71h-.1v-8c0-.27.12-.53.32-.72l1.7-1.58c.11-.1.17-.25.16-.39l-.97-16.25c-.02-.39.13-.77.42-1.05.6-.55,1.57-.55,2.18,0,.29.28.44.66.41,1.05l-.96,16.25c0,.15.05.29.16.39l1.7,1.58c.2.19.32.45.32.72v8Z"/><path d="m179.28,61.41h1.09v1.02h-1.09v-1.02Z"/></g><g><path class="cls-1" d="m31,111.66l-.95-.31,4.95-11.85.93.33-4.94,11.83Z"/><path class="cls-1" d="m54.47,104.6c-.01-.33-.03-.62-.05-.88h1.06c.02.21.04.44.05.69.01.25.02.46.02.62h.03c.22-.45.54-.81.98-1.09.44-.28.93-.42,1.47-.42.14,0,.27,0,.38.02.11.01.23.03.35.07l-.15,1.06c-.07-.02-.17-.04-.33-.07-.15-.02-.31-.03-.46-.03-.29,0-.58.05-.85.16-.27.11-.51.28-.71.51-.2.23-.37.53-.49.9-.13.36-.19.8-.19,1.31v3.91h-1.11v-5.97c0-.21,0-.47-.02-.8Z"/><path class="cls-1" d="m76.51,107.32v.25c0,.09,0,.18-.02.28h-6.34c.01.38.09.74.23,1.08.14.34.34.63.59.88.25.25.54.45.88.6.34.15.7.22,1.1.22.58,0,1.08-.13,1.5-.4.42-.27.74-.57.96-.92l.83.65c-.46.58-.96.99-1.51,1.24-.55.25-1.14.38-1.77.38-.57,0-1.09-.1-1.58-.3-.48-.2-.9-.48-1.25-.84-.35-.36-.62-.78-.83-1.28-.2-.49-.3-1.02-.3-1.6s.1-1.11.29-1.6c.2-.49.47-.92.82-1.28.35-.36.76-.64,1.23-.84.47-.2.98-.3,1.52-.3.6,0,1.13.1,1.59.3.46.2.84.47,1.14.82.3.34.54.74.69,1.2.16.46.24.95.24,1.47Zm-1.13-.36c-.03-.72-.26-1.32-.69-1.79-.43-.47-1.04-.71-1.84-.71-.37,0-.71.07-1.03.2-.32.14-.59.32-.83.56-.24.23-.43.5-.57.8-.14.3-.22.61-.25.94h5.21Z"/><path class="cls-1" d="m103.04,105.47c-.19-.29-.46-.54-.81-.73-.35-.19-.74-.29-1.15-.29-.45,0-.85.08-1.21.24-.36.16-.67.38-.92.65s-.45.6-.59.98-.2.78-.2,1.22.07.84.2,1.21c.14.37.33.69.58.97.25.28.56.5.92.65.36.16.76.24,1.21.24.49,0,.9-.09,1.24-.28.34-.19.62-.42.83-.72l.83.62c-.33.4-.73.72-1.2.96-.47.24-1.04.36-1.71.36-.62,0-1.18-.1-1.68-.3-.5-.2-.93-.48-1.28-.84-.35-.36-.63-.78-.83-1.28-.2-.49-.29-1.02-.29-1.6s.1-1.11.29-1.6c.2-.49.47-.92.83-1.28.35-.36.78-.64,1.28-.84.5-.2,1.06-.3,1.68-.3.51,0,1.03.11,1.56.34.53.22.96.55,1.28.99l-.87.62Z"/><path class="cls-1" d="m117.19,100.78c0,.23-.08.42-.25.56-.16.15-.34.22-.54.22s-.38-.07-.54-.22c-.16-.15-.25-.33-.25-.56s.08-.42.25-.56c.16-.15.34-.22.54-.22s.38.07.54.22c.16.15.25.34.25.56Zm-.23,10.59h-1.11v-7.65h1.11v7.65Z"/><path class="cls-1" d="m139.01,115.29h-1.11v-11.57h1.11v1.32h.05c.32-.5.74-.88,1.27-1.14.53-.26,1.06-.38,1.61-.38.6,0,1.14.1,1.63.31.48.21.9.49,1.24.85.34.36.61.78.8,1.27.19.49.29,1.02.29,1.59s-.1,1.1-.29,1.59c-.19.49-.46.92-.8,1.27-.34.36-.76.64-1.24.85-.48.21-1.03.31-1.63.31-.55,0-1.08-.13-1.61-.38-.53-.26-.95-.62-1.27-1.1h-.05v5.21Zm5.7-7.75c0-.42-.07-.83-.2-1.2-.13-.38-.32-.7-.56-.98-.25-.28-.55-.5-.91-.66-.36-.16-.77-.25-1.23-.25-.43,0-.82.08-1.18.24-.36.16-.67.38-.93.65s-.47.6-.61.98-.22.78-.22,1.22.07.84.22,1.22.35.7.61.97c.26.27.57.49.93.65.36.16.75.24,1.18.24.46,0,.87-.08,1.23-.24.36-.16.66-.38.91-.65.24-.28.43-.6.56-.98.13-.38.2-.78.2-1.2Z"/><path class="cls-1" d="m161.78,107.32v.25c0,.09,0,.18-.02.28h-6.34c.01.38.09.74.23,1.08.14.34.34.63.59.88.25.25.54.45.88.6s.7.22,1.1.22c.58,0,1.08-.13,1.5-.4.42-.27.74-.57.96-.92l.83.65c-.46.58-.96.99-1.51,1.24-.55.25-1.14.38-1.77.38-.57,0-1.09-.1-1.58-.3-.48-.2-.9-.48-1.25-.84-.35-.36-.62-.78-.83-1.28-.2-.49-.3-1.02-.3-1.6s.1-1.11.29-1.6c.2-.49.47-.92.82-1.28.35-.36.76-.64,1.23-.84.47-.2.98-.3,1.52-.3.6,0,1.13.1,1.59.3.46.2.84.47,1.14.82.3.34.54.74.69,1.2.16.46.24.95.24,1.47Zm-1.13-.36c-.03-.72-.26-1.32-.69-1.79-.43-.47-1.04-.71-1.84-.71-.37,0-.71.07-1.03.2-.32.14-.59.32-.83.56-.24.23-.43.5-.57.8-.14.3-.22.61-.24.94h5.21Z"/><path class="cls-1" d="m180.72,111.66l-.95-.31,4.95-11.85.93.33-4.94,11.83Z"/></g><path class="cls-1" d="m65.58,87c0,1.58-1.28,2.85-2.85,2.85h-10.28c-1.58,0-2.85-1.28-2.85-2.85v-32.37c0-1.58-1.28-2.85-2.85-2.85h-7.13c-1.04,0-2,.57-2.5,1.48l-19.19,35.1c-.5.92-1.46,1.48-2.5,1.48H2.86c-2.22,0-3.59-2.42-2.44-4.32l19.45-32.31c.94-1.57.19-3.6-1.55-4.18-4.73-1.57-8.58-4.02-11.56-7.34-3.68-4.1-5.52-9.41-5.52-15.93,0-4.74.93-8.76,2.79-12.06,1.86-3.3,4.34-5.96,7.42-7.99,3.09-2.03,6.62-3.49,10.6-4.38C26.03.44,30.13,0,34.36,0h28.37c1.58,0,2.85,1.28,2.85,2.85v84.14Zm-18.84-48.29c1.58,0,2.85-1.28,2.85-2.85v-19.55c0-1.58-1.28-2.85-2.85-2.85h-11.62c-2.03,0-4.12.17-6.28.51-2.16.34-4.08.97-5.77,1.9s-3.09,2.18-4.19,3.74c-1.1,1.57-1.65,3.58-1.65,6.03,0,2.71.59,4.93,1.78,6.66,1.18,1.74,2.69,3.07,4.5,4,1.82.93,3.87,1.57,6.15,1.9,2.29.34,4.57.51,6.85.51h10.22Z"/><path class="cls-1" d="m74.99,74.6l44.56-56.02c1.49-1.87.16-4.63-2.23-4.63h-39.33c-1.58,0-2.85-1.28-2.85-2.85V2.85C75.13,1.28,76.41,0,77.98,0h61.43C140.99,0,142.26,1.28,142.26,2.85v10.61c0,.65-.22,1.28-.63,1.79l-44.76,55.75c-1.5,1.87-.17,4.64,2.22,4.64h41.07c1.58,0,2.85,1.28,2.85,2.85v8.51c0,1.58-1.28,2.85-2.85,2.85h-62.95c-1.58,0-2.85-1.28-2.85-2.85v-10.62c0-.65.22-1.27.62-1.78Z"/><path class="cls-1" d="m157.37,2.85C157.37,1.28,158.64,0,160.22,0h26.46C191.84,0,196.49.46,200.64,1.39c4.14.93,7.7,2.45,10.66,4.57,2.96,2.12,5.24,4.82,6.85,8.12,1.61,3.3,2.41,7.28,2.41,11.93,0,4.99-.93,9.18-2.79,12.56-1.86,3.38-4.38,6.11-7.55,8.19s-6.87,3.58-11.1,4.5c-4.23.93-8.72,1.4-13.45,1.4h-9.46c-1.58,0-2.85,1.28-2.85,2.85v31.48c0,1.58-1.28,2.85-2.85,2.85h-10.29c-1.58,0-2.85-1.28-2.85-2.85V2.85Zm27.16,36.36c2.62,0,5.12-.19,7.49-.57,2.37-.38,4.48-1.06,6.34-2.03s3.34-2.3,4.44-4c1.1-1.69,1.65-3.89,1.65-6.6s-.55-4.76-1.65-6.41c-1.1-1.65-2.56-2.94-4.38-3.87-1.82-.93-3.89-1.54-6.22-1.84-2.33-.3-4.72-.44-7.17-.44h-8.82c-1.58,0-2.85,1.28-2.85,2.85v20.06c0,1.58,1.28,2.85,2.85,2.85h8.31Z"/><line class="cls-2" x1="154.46" y1="100.62" x2="161.47" y2="100.62"/></g></svg>