<?xml version="1.0" encoding="UTF-8"?><svg id="Layer_2" xmlns="http://www.w3.org/2000/svg" viewBox="0 0 701.75 366.82"><defs><style>.cls-1{fill:#231f20;}.cls-2{fill:none;stroke:#231f20;stroke-miterlimit:10;stroke-width:2px;}</style></defs><g id="Layer_1-2"><g><path d="m115.71,285.86h31.88c.47,0,.92-.19,1.25-.52s.52-.78.52-1.25v-25.61c0-2.28-1.11-4.43-2.98-5.76l-9.42-6.7,3.15-57.49c.15-2.34-.67-4.64-2.28-6.35-1.6-1.71-3.84-2.68-6.19-2.68s-4.59.97-6.19,2.68c-1.6,1.71-2.43,4.01-2.28,6.35l3.15,57.49-9.39,6.7c-1.88,1.32-3,3.46-3.01,5.76v25.61c0,.47.19.92.52,1.25s.78.52,1.25.52h0Zm1.77-27.38c0-1.14.56-2.21,1.49-2.87l10.17-7.28c.46-.33.74-.86.74-1.43l-3.17-58.45c-.1-1.4.41-2.78,1.4-3.77,1.97-1.94,5.12-1.94,7.08,0,.95.98,1.44,2.31,1.36,3.67l-3.14,58.56c-.03.6.25,1.17.74,1.52l10.17,7.28c.9.64,1.46,1.67,1.49,2.78v23.84h-28.34v-23.84Z"/><path d="m129.88,261.07h3.54v17.71h-3.54v-17.71Z"/><path d="m121.03,261.07h3.54v17.71h-3.54v-17.71Z"/><path d="m138.74,261.07h3.54v17.71h-3.54v-17.71Z"/><path d="m129.88,186.68h3.54v3.54h-3.54v-3.54Z"/></g><g><path d="m309.47,112.32l44.27-44.8c1.79-1.77,2.76-4.2,2.69-6.71-.07-2.51-1.18-4.89-3.06-6.56s-4.37-2.48-6.87-2.25c-2.5.23-4.8,1.49-6.34,3.47l-39.2,49.3c-4.99-2.24-10.65-2.5-15.82-.7-6.66,2.22-11.76,7.63-13.56,14.41-1.81,6.78-.07,14.02,4.6,19.25.6.53,1.1,1.16,1.68,1.67,4.14,3.66,9.56,5.53,15.07,5.2,5.51-.33,10.67-2.84,14.34-6.98,2.98-3.45,4.79-7.76,5.19-12.3.39-4.55-.66-9.1-3-13.01h0Zm-17.73,28.55c-8.4.06-15.59-6.02-16.95-14.31-1.36-8.29,3.53-16.33,11.52-18.95,4.67-1.65,9.83-1.23,14.18,1.15.78.44,1.76.27,2.35-.4l40.21-50.45c1.94-2.18,5.28-2.38,7.46-.45s2.38,5.28.45,7.46l-45.29,45.95c-.62.67-.68,1.68-.14,2.41,2.27,3.24,3.41,7.15,3.21,11.1-.2,3.96-1.71,7.73-4.3,10.72-3.22,3.64-7.84,5.74-12.7,5.75h0Z"/><path d="m281.77,115.01c-4.86,5.48-4.36,13.87,1.12,18.73l2.51-2.84c-3.92-3.47-4.28-9.46-.8-13.38,3.47-3.92,9.46-4.28,13.38-.8l2.51-2.84c-5.48-4.86-13.87-4.36-18.73,1.12h0Z"/><path d="m346.86,58.75l2.84,2.51-2.51,2.84-2.84-2.51,2.51-2.84Z"/></g><g><path d="m577.34,248.07l3.08-50.99c.15-2.14-.66-4.23-2.23-5.79-1.57-1.56-3.76-2.45-6.06-2.45s-4.49.89-6.06,2.45c-1.57,1.56-2.37,3.66-2.23,5.79l3.08,50.99-4.87,4.52c-1.3,1.21-2.04,2.86-2.06,4.57v27.08c0,.43.18.84.51,1.14s.77.47,1.23.47h3.47c.83.02,1.56-.52,1.73-1.28l4.87-21.34h.66l4.87,21.34c.17.76.9,1.29,1.73,1.28h3.47c.46,0,.9-.17,1.23-.47s.51-.71.51-1.14v-27.08c0-1.71-.74-3.35-2.03-4.57l-4.9-4.52Zm3.47,34.56h-.33l-4.87-21.34c-.17-.76-.9-1.29-1.73-1.28h-3.47c-.83-.02-1.56.52-1.73,1.28l-4.87,21.34h-.33v-25.46c0-.86.37-1.68,1.02-2.28l5.41-5.04c.35-.33.53-.78.5-1.24l-3.08-51.7c-.06-1.24.42-2.45,1.35-3.34,1.92-1.77,5.01-1.77,6.93,0,.91.9,1.39,2.11,1.32,3.34l-3.05,51.7c-.03.46.15.92.5,1.24l5.41,5.04c.65.6,1.02,1.42,1.02,2.28v25.46Z"/><path d="m570.41,195.38h3.47v3.23h-3.47v-3.23Z"/></g><g><path class="cls-1" d="m98.61,355.27l-3.02-.99,15.76-37.7,2.96,1.04-15.7,37.65Z"/><path class="cls-1" d="m173.29,332.81c-.03-1.04-.09-1.98-.16-2.81h3.38c.07.66.12,1.39.16,2.18.03.8.05,1.46.05,1.98h.1c.69-1.42,1.73-2.57,3.12-3.46,1.39-.88,2.95-1.33,4.68-1.33.45,0,.86.02,1.22.05.36.04.74.1,1.12.21l-.47,3.38c-.21-.07-.55-.14-1.04-.21-.49-.07-.97-.1-1.46-.1-.94,0-1.84.17-2.7.52-.87.35-1.62.89-2.26,1.63-.64.74-1.16,1.69-1.56,2.85-.4,1.16-.6,2.55-.6,4.18v12.45h-3.54v-18.98c0-.66-.02-1.51-.05-2.55Z"/><path class="cls-1" d="m243.43,341.44v.78c0,.28-.02.57-.05.88h-20.18c.03,1.21.28,2.36.73,3.43.45,1.08,1.07,2.01,1.87,2.81.8.8,1.73,1.43,2.81,1.9,1.07.47,2.24.7,3.48.7,1.84,0,3.42-.42,4.76-1.27,1.33-.85,2.35-1.83,3.04-2.94l2.65,2.08c-1.46,1.84-3.06,3.16-4.81,3.95-1.75.8-3.63,1.2-5.64,1.2-1.8,0-3.48-.32-5.02-.96-1.54-.64-2.87-1.53-3.98-2.68-1.11-1.14-1.98-2.5-2.63-4.06-.64-1.56-.96-3.26-.96-5.1s.31-3.54.94-5.1c.62-1.56,1.49-2.91,2.6-4.06,1.11-1.14,2.41-2.04,3.9-2.68,1.49-.64,3.1-.96,4.84-.96,1.91,0,3.59.32,5.04.96,1.46.64,2.67,1.51,3.64,2.6.97,1.09,1.71,2.37,2.21,3.82.5,1.46.75,3.02.75,4.68Zm-3.59-1.14c-.1-2.29-.84-4.19-2.21-5.69-1.37-1.51-3.32-2.26-5.85-2.26-1.18,0-2.27.22-3.28.65-1.01.43-1.89,1.02-2.65,1.77-.76.75-1.37,1.59-1.82,2.55-.45.95-.71,1.95-.78,2.99h16.59Z"/><path class="cls-1" d="m327.83,335.56c-.59-.94-1.45-1.71-2.57-2.31-1.13-.61-2.35-.91-3.67-.91-1.42,0-2.7.25-3.85.75-1.14.5-2.12,1.2-2.94,2.08s-1.44,1.92-1.87,3.12-.65,2.49-.65,3.87.22,2.67.65,3.85c.43,1.18,1.05,2.21,1.85,3.09.8.88,1.77,1.58,2.91,2.08,1.14.5,2.43.75,3.85.75,1.56,0,2.88-.29,3.95-.88,1.07-.59,1.96-1.35,2.65-2.29l2.65,1.98c-1.04,1.28-2.31,2.31-3.82,3.07-1.51.76-3.32,1.14-5.43,1.14-1.98,0-3.76-.32-5.36-.96-1.59-.64-2.96-1.53-4.08-2.68-1.13-1.14-2-2.5-2.63-4.06-.62-1.56-.94-3.26-.94-5.1s.31-3.54.94-5.1c.62-1.56,1.5-2.91,2.63-4.06,1.13-1.14,2.49-2.04,4.08-2.68,1.59-.64,3.38-.96,5.36-.96,1.63,0,3.28.36,4.97,1.07,1.68.71,3.04,1.76,4.08,3.15l-2.76,1.98Z"/><path class="cls-1" d="m372.86,320.64c0,.73-.26,1.33-.78,1.79-.52.47-1.09.7-1.72.7s-1.2-.23-1.72-.7c-.52-.47-.78-1.07-.78-1.79s.26-1.33.78-1.79c.52-.47,1.09-.7,1.72-.7s1.2.23,1.72.7c.52.47.78,1.07.78,1.79Zm-.73,33.7h-3.54v-24.34h3.54v24.34Z"/><path class="cls-1" d="m442.28,366.82h-3.54v-36.82h3.54v4.21h.16c1-1.59,2.35-2.8,4.03-3.61,1.68-.81,3.39-1.22,5.12-1.22,1.91,0,3.63.33,5.17.99,1.54.66,2.86,1.56,3.95,2.7,1.09,1.14,1.94,2.5,2.55,4.06.61,1.56.91,3.24.91,5.04s-.3,3.48-.91,5.04c-.61,1.56-1.46,2.91-2.55,4.06-1.09,1.14-2.41,2.05-3.95,2.7-1.54.66-3.27.99-5.17.99-1.73,0-3.44-.41-5.12-1.22-1.68-.81-3.03-1.98-4.03-3.51h-.16v16.59Zm18.15-24.65c0-1.35-.21-2.63-.62-3.82-.42-1.2-1.01-2.24-1.79-3.12-.78-.88-1.74-1.59-2.89-2.11-1.14-.52-2.44-.78-3.9-.78-1.35,0-2.6.25-3.74.75-1.14.5-2.13,1.2-2.96,2.08s-1.48,1.92-1.95,3.12-.7,2.49-.7,3.87.23,2.68.7,3.87,1.12,2.23,1.95,3.09c.83.87,1.82,1.55,2.96,2.05,1.14.5,2.39.75,3.74.75,1.46,0,2.76-.25,3.9-.75,1.14-.5,2.11-1.2,2.89-2.08.78-.88,1.38-1.92,1.79-3.12.42-1.2.62-2.47.62-3.82Z"/><path class="cls-1" d="m514.72,341.44v.78c0,.28-.02.57-.05.88h-20.18c.03,1.21.28,2.36.73,3.43.45,1.08,1.07,2.01,1.87,2.81.8.8,1.73,1.43,2.81,1.9s2.24.7,3.48.7c1.84,0,3.42-.42,4.76-1.27,1.33-.85,2.35-1.83,3.04-2.94l2.65,2.08c-1.46,1.84-3.06,3.16-4.81,3.95-1.75.8-3.63,1.2-5.64,1.2-1.8,0-3.48-.32-5.02-.96-1.54-.64-2.87-1.53-3.98-2.68-1.11-1.14-1.99-2.5-2.63-4.06-.64-1.56-.96-3.26-.96-5.1s.31-3.54.94-5.1c.62-1.56,1.49-2.91,2.6-4.06,1.11-1.14,2.41-2.04,3.9-2.68,1.49-.64,3.1-.96,4.84-.96,1.91,0,3.59.32,5.04.96,1.46.64,2.67,1.51,3.64,2.6.97,1.09,1.71,2.37,2.21,3.82.5,1.46.75,3.02.75,4.68Zm-3.59-1.14c-.1-2.29-.84-4.19-2.21-5.69-1.37-1.51-3.32-2.26-5.85-2.26-1.18,0-2.27.22-3.28.65-1.01.43-1.89,1.02-2.65,1.77-.76.75-1.37,1.59-1.82,2.55-.45.95-.71,1.95-.78,2.99h16.59Z"/><path class="cls-1" d="m574.98,355.27l-3.02-.99,15.76-37.7,2.96,1.04-15.7,37.65Z"/></g><path class="cls-1" d="m208.65,276.79c0,5.01-4.06,9.08-9.08,9.08h-32.72c-5.01,0-9.08-4.06-9.08-9.08v-102.97c0-5.01-4.06-9.08-9.08-9.08h-22.69c-3.32,0-6.37,1.81-7.96,4.72l-61.06,111.68c-1.59,2.91-4.65,4.72-7.96,4.72H9.09c-7.06,0-11.42-7.71-7.78-13.76l61.88-102.81c3-4.99.59-11.45-4.93-13.29-15.03-5.01-27.29-12.8-36.77-23.37-11.71-13.06-17.56-29.94-17.56-50.68,0-15.07,2.96-27.86,8.88-38.36,5.93-10.49,13.8-18.97,23.62-25.43,9.83-6.46,21.07-11.1,33.72-13.93C82.82,1.41,95.87,0,109.33,0h90.25c5.01,0,9.08,4.06,9.08,9.08v267.71Zm-59.95-153.64c5.01,0,9.08-4.06,9.08-9.08v-62.19c0-5.01-4.06-9.08-9.08-9.08h-36.95c-6.46,0-13.12.55-19.99,1.62-6.86,1.08-12.99,3.09-18.37,6.06s-9.83,6.93-13.33,11.91c-3.5,4.99-5.25,11.38-5.25,19.18,0,8.61,1.89,15.68,5.66,21.19,3.77,5.52,8.55,9.76,14.33,12.72,5.79,2.96,12.32,4.98,19.58,6.05,7.27,1.08,14.54,1.62,21.81,1.62h32.51Z"/><path class="cls-1" d="m238.59,237.36L380.35,59.14c4.73-5.95.5-14.73-7.1-14.73h-125.13c-5.01,0-9.08-4.06-9.08-9.08V9.08C239.03,4.06,243.1,0,248.11,0h195.44C448.56,0,452.63,4.06,452.63,9.08v33.76c0,2.07-.71,4.07-2,5.68l-142.41,177.36c-4.77,5.94-.54,14.76,7.08,14.76h130.68c5.01,0,9.08,4.06,9.08,9.08v27.07c0,5.01-4.06,9.08-9.08,9.08h-200.28c-5.01,0-9.08-4.06-9.08-9.08v-33.78c0-2.05.7-4.04,1.97-5.65Z"/><path class="cls-1" d="m500.67,9.08C500.67,4.06,504.73,0,509.75,0h84.2C610.36,0,625.16,1.48,638.36,4.44c13.19,2.96,24.49,7.81,33.92,14.54,9.42,6.73,16.68,15.35,21.8,25.84,5.11,10.5,7.67,23.16,7.67,37.96,0,15.88-2.96,29.21-8.89,39.97-5.92,10.77-13.93,19.45-24.02,26.05s-21.87,11.37-35.33,14.33c-13.47,2.96-27.73,4.44-42.8,4.44h-30.09c-5.01,0-9.08,4.06-9.08,9.08v100.15c0,5.01-4.06,9.08-9.08,9.08h-32.73c-5.01,0-9.08-4.06-9.08-9.08V9.08Zm86.41,115.68c8.34,0,16.29-.61,23.83-1.81,7.53-1.21,14.26-3.37,20.19-6.46s10.63-7.33,14.13-12.72c3.5-5.38,5.25-12.38,5.25-20.99s-1.75-15.14-5.25-20.4c-3.5-5.25-8.14-9.35-13.93-12.31-5.79-2.96-12.38-4.91-19.78-5.85-7.41-.94-15.01-1.41-22.82-1.41h-28.06c-5.01,0-9.08,4.06-9.08,9.08v63.81c0,5.01,4.06,9.08,9.08,9.08h26.45Z"/><line class="cls-2" x1="491.44" y1="320.14" x2="513.72" y2="320.14"/></g></svg>