<?xml version="1.0" encoding="UTF-8"?>
<svg width="100pt" height="100pt" version="1.1" viewBox="0 0 100 100" xmlns="http://www.w3.org/2000/svg">
 <g>
  <path d="m80.184 21.781c-4.7969 0-9.125 2.8906-10.961 7.3242-1.8359 4.4336-0.82031 9.5352 2.5703 12.93 3.3945 3.3906 8.4961 4.4062 12.93 2.5703 4.4336-1.8359 7.3242-6.1641 7.3242-10.961-0.007813-6.5469-5.3164-11.855-11.863-11.863zm0 18.82v-0.003906c-2.8125 0-5.3477-1.6914-6.4258-4.293-1.0781-2.5977-0.48047-5.5898 1.5078-7.5781 1.9883-1.9883 4.9805-2.5859 7.5781-1.5078 2.6016 1.0781 4.293 3.6133 4.293 6.4258-0.007813 3.8359-3.1172 6.9453-6.9531 6.9531z"/>
  <path d="m50.059 25.055c-3.8438 0-7.5273 1.5234-10.242 4.2383-2.7148 2.7188-4.2422 6.4023-4.2422 10.242s1.5273 7.5234 4.2422 10.242c2.7148 2.7148 6.3984 4.2383 10.242 4.2383 3.8398 0 7.5234-1.5234 10.238-4.2383 2.7148-2.7188 4.2422-6.4023 4.2422-10.242-0.003906-3.8398-1.5312-7.5195-4.2461-10.234-2.7148-2.7148-6.3945-4.2422-10.234-4.2461zm0 23.793c-3.7656 0-7.1641-2.2695-8.6055-5.75-1.4375-3.4766-0.64453-7.4844 2.0195-10.145 2.6641-2.6641 6.668-3.4609 10.148-2.0195 3.4805 1.4414 5.7461 4.8359 5.7461 8.6016-0.027344 5.125-4.1875 9.2617-9.3086 9.2617z"/>
  <path d="m19.637 45.508c-4.7969 0-9.125-2.8906-10.961-7.3242-1.8359-4.4336-0.82031-9.5352 2.5703-12.93 3.3945-3.3906 8.4961-4.4062 12.93-2.5703 4.4336 1.8359 7.3242 6.1641 7.3242 10.961-0.007812 6.5469-5.3164 11.855-11.863 11.863zm0-18.816c-2.8125 0-5.3477 1.6914-6.4258 4.293-1.0742 2.5977-0.48047 5.5898 1.5078 7.5781s4.9805 2.582 7.5781 1.5078c2.6016-1.0781 4.293-3.6133 4.293-6.4258-0.007813-3.8359-3.1172-6.9453-6.9531-6.9531z"/>
  <path d="m99.82 55.129c-1.0156-2.0469-5.3359-8.7383-19.637-8.7383-9.8203 0-14.891 3.1094-17.527 5.7266-0.54297 0.54297-1.0352 1.1367-1.4727 1.7695 1.7578 0.38281 3.4883 0.89062 5.1719 1.5234 1.9648-1.9336 5.8086-4.1758 13.648-4.1758 11.094 0 15.086 4.5312 15.086 5.7617v2.5859h-21.715c1.9648 1.2461 3.6172 2.9258 4.8281 4.9102h18.508c2.0156-0.25 3.4648-2.0547 3.2734-4.0781v-3.6797c0.070313-0.53906 0.015625-1.0898-0.16406-1.6055z"/>
  <path d="m72.344 78.219h-44.625c-2.2578 0-4.0898-1.832-4.0898-4.0898v-5.0586c0-0.61719 0.14062-1.2266 0.41016-1.7812 1.3242-2.668 7.0703-11.34 26.004-11.34 18.934 0 24.676 8.6719 25.984 11.324 0.27344 0.55859 0.41406 1.1758 0.41016 1.7969v5.0742c-0.011719 2.2539-1.8398 4.0742-4.0938 4.0742zm-43.805-4.9102h42.988v-4.0742c-0.94922-1.7656-5.582-8.4102-21.484-8.4102-15.906 0-20.586 6.6758-21.504 8.4102z"/>
  <path d="m26.543 59.629h-21.453v-2.5859c0.074218-0.56641 0.35938-1.0859 0.80078-1.4531 1.9805-1.9648 5.8594-4.3555 13.941-4.3555s11.863 2.3242 13.777 4.0898l0.003906 0.003906c1.6719-0.63281 3.3867-1.1445 5.1367-1.5234-1.8984-2.668-6.9531-7.4766-19.113-7.4766-9.8203 0-14.957 3.1094-17.574 5.7266-0.94141 0.79297-1.5977 1.875-1.8672 3.0742-0.21484 1.7734-0.21484 3.5625 0 5.3359 0 2.0273 0.93359 4.0742 2.9453 4.0742h18.688c1.1992-1.957 2.8086-3.6289 4.7148-4.9102z"/>
 </g>
</svg>
